<svg width="278.53" height="125.61" xmlns="http://www.w3.org/2000/svg" viewBox="110.74 12.19 278.53 125.61" style="background:0 0" preserveAspectRatio="xMidYMid">
  <defs>
    <filter id="editing-hover" x="-100%" y="-100%" width="300%" height="300%">
      <feFlood flood-color="#aeb7c2" result="flood"/>
      <feComposite operator="in" in2="SourceAlpha" in="flood" result="shadow"/>
      <feOffset dx="-4" dy="-4" in="SourceGraphic" result="offset-1"/>
      <feOffset dx="4" dy="4" in="shadow" result="offset-2"/>
      <feMerge>
        <feMergeNode in="offset-2"/>
        <feMergeNode in="offset-1"/>
      </feMerge>
    </filter>
  </defs>
  <g filter="url(#editing-hover)">
    <path d="M199 97.78l-5.38-11.97h-24.96l-5.37 11.97h-4.93l20.48-44.8h4.67l20.48 44.8h-5zm-28.61-15.81h21.5l-10.75-24.06-10.75 24.06zm60.48 16.19q-6.66 0-12-2.94t-8.38-8.16q-3.04-5.22-3.04-11.68t3.04-11.68q3.04-5.22 8.4-8.16 5.39-2.94 12.04-2.94 5 0 9.22 1.66 4.22 1.66 7.17 4.86l-3.01 3.01q-5.25-5.31-13.25-5.31-5.31 0-9.66 2.43-4.35 2.43-6.82 6.66-2.46 4.22-2.46 9.47 0 5.25 2.46 9.47 2.47 4.23 6.82 6.66 4.35 2.43 9.66 2.43 8.07 0 13.25-5.38l3 3.01q-2.94 3.2-7.2 4.9-4.25 1.69-9.24 1.69zm26.56-.38v-44.8h4.74v40.7h25.08v4.1h-29.82zm80.32-44.8h3.9v44.8h-4.54V61.94l-17.6 30.14h-2.24l-17.6-29.95v35.65h-4.54v-44.8h3.9l19.46 33.22 19.26-33.22z" fill="#fefefe"/>
  </g>
  <style>
  </style>
</svg>
